<?xml version="1.0"?>
<svg xmlns="http://www.w3.org/2000/svg" xmlns:xlink="http://www.w3.org/1999/xlink" preserveAspectRatio="xMinYMin" viewBox="0 0 142.62 107.46">
<title>livepress</title>
<path d="M106.67.48H77.5l-9.67 30h39.25L40 107.46 82.71 83h19.6c26.13 0 35.25-12.83 37.88-32.78L143.28 28C144.83 13.83 133.73.48 106.67.48zM33.42 53L40.75.48 8.34 0 1 50.65l-.61 4.69c-2 13.29 3.45 27 29.22 27.5h18.14L57.17 53H33.42z" fill="#262729"/>
<path fill="#fd0" d="M39.96 107.47l67.13-77H67.84L77.5.48H40.75l-7.33 52.56h23.75l-9.42 29.79h.85l-8.57 24.44-.07.2z"/>
<path d="M67.84 30.47l9.67-30h-8.92l-9.5 35h35.5L40 107.27l-.07.19 67.13-77H67.84z" fill="#ffc627"/>
</svg>
