<svg xmlns="http://www.w3.org/2000/svg" xmlns:xlink="http://www.w3.org/1999/xlink" preserveAspectRatio="xMinYMin" viewBox="0 0 482.62 107.46"><defs><linearGradient id="a" x1="236.73" y1="54.37" x2="236.73" y2="17.85" gradientUnits="userSpaceOnUse"><stop offset="0" stop-color="#fe0"/><stop offset="1" stop-color="#ffc325"/></linearGradient><linearGradient id="b" x1="256.53" y1="51.72" x2="256.53" y2="17.85" xlink:href="#a"/><linearGradient id="c" x1="217.78" y1="58.04" x2="217.78" y2="17.85" xlink:href="#a"/><linearGradient id="d" x1="185.08" y1="66.73" x2="185.08" y2="17.85" xlink:href="#a"/><linearGradient id="e" x1="283.96" y1="49.72" x2="283.96" y2="17.62" xlink:href="#a"/></defs><title>livepress</title><path d="M388.61 45.23l.57-4H406l1-7.85h-16.74l.51-3.68c.4-2.72 2.27-4.25 5.16-4.25h16.77l1-7.31-.45-.51h-18.74c-9 0-12.7 4.76-13.72 12.3l-2.15 15.13c-1.19 8.39 2.1 12.24 10.77 12.24h18.36l.51-.45 1-7.37h-16.59c-2.83 0-4.47-1.53-4.08-4.25zm-75.1.9H326c7.59 0 12.24-3.34 13.21-10.43l1-7c1-7.48-2.1-10.88-9.81-10.88h-22.9L302 57.07h10zm2.95-20.57h11.44c1.76 0 2.72.62 2.44 2.55L329.26 36c-.28 1.93-1.42 2.55-3.23 2.55h-11.45zm144.34 2.15a2.49 2.49 0 0 1 2.83-2.27h18l1-7.37-.45-.45h-20.35c-7.59 0-10.2 4.48-10.83 8.9l-1.13 8c-.62 4.48 1 7.54 7.65 7.54h10.94c1.47 0 2.21.51 2 2.21l-.46 3.34c-.11.79-.4 1.87-2.49 1.87h-18.78l-1 7.31.34.51h20.86c6.69 0 10.09-3.17 10.94-9.41l1.13-7.82c.68-4.87-2.15-7-7.37-7h-11.41c-1 0-2.1-.28-1.87-2zm-38.61 14.4h10.94c1.47 0 2.21.51 2 2.21l-.45 3.29c-.11.79-.4 1.87-2.49 1.87H413.4l-1 7.31.34.51h20.86c6.69 0 10.09-3.17 10.94-9.41l1.13-7.82c.68-4.87-2.15-7-7.37-7h-11.41c-1 0-2.1-.28-1.87-2l.45-3.29a2.49 2.49 0 0 1 2.83-2.27h18l1-7.37-.45-.45h-20.36c-7.59 0-10.2 4.48-10.83 8.9l-1.13 8c-.62 4.41.97 7.52 7.66 7.52zm-73.1 14.96l1.47-10.37h9.86c2.38 0 4.42.17 3.91 3.51l-1 6.86h10l1-7.2c.62-4.42-2-6.29-6-7.25l.06-.34c3.46-.68 7.2-2.44 8.16-9.29l.68-4.71c.85-6.18-1.59-10.43-9.18-10.43h-23.38l-5.55 39.22h10zm4.48-31.51h11.33c1.76 0 2.78.62 2.49 2.55l-1 7.48c-.28 1.93-1.19 3.12-2.95 3.12h-11.75z" fill="#555759"/><path d="M262.17 38.77l.24-.64c1.2-3.48 1.68-7.59 2.78-15.79v-.24l.22-1.64.09-.46c.1-.7.2-1.43.3-2.19h-13.88l-1.53 11c-.51 3.46-1.13 7.77-2.95 10.77l-.19.32-2.53 4.16h-.28c-.36-1.29-.78-2.56-1.1-3.84-.07-.28-.13-.55-.19-.83v-.12c0-.24-.09-.49-.13-.73s0-.23 0-.35 0-.35-.06-.53 0-.6 0-.91a62.69 62.69 0 0 1 .74-8l1.53-10.94h-14.56l-2 13.94a32.86 32.86 0 0 0-.34 4.7c0 .57 0 1.14.07 1.7 0 .27 0 .54.07.81s0 .32.06.48c.1.73.22 1.45.38 2.17q7.12-.75 14.42-1.39-7.29.64-14.42 1.39a19.13 19.13 0 0 0 1 3.11L235 57.36h15.19c7.28-10.42 10.31-14.17 12-18.56zm-53.6 5.28l-1.82 13.02h14.74l2.07-14.83 3.42-24.39h-14.73l-3.68 26.2zm-21.03 1.46l3.85-27.66h-14.74l-5.49 39.22h32.53l1.64-11.56h-17.79zm112.84-16.38l1.53-10.94-.51-.57h-20.52c-10 0-12.64 5.44-13.66 12.58L266 38.55l-1.29 8.95c0 5.89 2 9.8 11.33 9.8H296l.51-.45 1.59-11.16h-18.29l.45-3.4h14.45l1.36-9.64h-14.45l.51-3.52h18.25z" fill="#ffc627"/><path d="M228.68 31.79a32.86 32.86 0 0 0-.34 4.7c0 .57 0 1.14.07 1.7 0 .27 0 .54.07.81s0 .32.06.48c.1.73.22 1.45.38 2.17q7.12-.75 14.42-1.39c-.07-.28-.13-.55-.19-.83v-.12c0-.24-.09-.49-.13-.73s0-.23 0-.35 0-.35-.06-.53 0-.6 0-.91a62.69 62.69 0 0 1 .74-8l1.53-10.94h-14.56z" fill="url(#a)"/><path d="M250.39 28.85c-.51 3.46-1.13 7.77-2.95 10.77l-.19.32q7.38-.62 14.91-1.13c1.4-3.65 1.86-7.75 3-16.5v-.24l.22-1.64.12-.43c.1-.7.2-1.43.3-2.19h-13.88z" fill="url(#b)"/><path d="M208.57 44.05q7.39-1 15-1.81L227 17.85h-14.75z" fill="url(#c)"/><path d="M191.39 17.85h-14.74l-4.47 31.86q12.47-2.28 25.78-4.21h-10.42z" fill="url(#d)"/><path d="M300.38 29.13l1.53-10.94-.51-.57h-20.52c-10 0-12.64 5.44-13.66 12.58L266 38.55q14.45-.92 29.42-1.43l.63-4.47h-14.43l.51-3.52h18.25z" fill="url(#e)"/><path d="M106.67.48H77.5l-9.67 30h39.25L40 107.46 82.71 83h19.6c26.13 0 35.25-12.83 37.88-32.78L143.28 28C144.83 13.83 133.73.48 106.67.48zM33.42 53L40.75.48 8.34 0 1 50.65l-.61 4.69c-2 13.29 3.45 27 29.22 27.5h18.14L57.17 53H33.42z" fill="#262729"/><path fill="#fff100" d="M40.03 107.27l8.57-24.44h-.85l-7.79 24.64.06-.18.01-.02z"/><path fill="#fd0" d="M39.96 107.47l67.13-77H67.84L77.5.48H40.75l-7.33 52.56h23.75l-9.42 29.79h.85l-8.57 24.44-.07.2z"/><path fill="#f5d534" d="M40.02 107.29l-.06.18.07-.2-.01.02z"/><path d="M67.84 30.47l9.67-30h-8.92l-9.5 35h35.5L40 107.27l-.07.19 67.13-77H67.84z" fill="#ffc627"/></svg>